HIERARCHY
ROOT mixamorig_Hips
{
	OFFSET 0.000000 0.890477 -0.000138
	CHANNELS 6 Xposition Yposition Zposition Xrotation Yrotation Zrotation
	JOINT mixamorig_RightUpLeg
	{
		OFFSET -8.224193 -6.337456 -1.245509
		CHANNELS 3 Xrotation Yrotation Zrotation
		JOINT mixamorig_RightLeg
		{
			OFFSET -0.853740 -41.205795 -1.113445
			CHANNELS 3 Xrotation Yrotation Zrotation
			JOINT mixamorig_RightFoot
			{
				OFFSET 0.305346 -37.074059 5.547482
				CHANNELS 3 Xrotation Yrotation Zrotation
				JOINT mixamorig_RightToeBase
				{
					OFFSET 0.275999 -7.386046 -10.162342
					CHANNELS 3 Xrotation Yrotation Zrotation
					End Site
					{
						OFFSET 1.527623 -0.641087 -9.418583
					}
				}
			}
		}
	}
	JOINT mixamorig_LeftUpLeg
	{
		OFFSET 8.238425 -6.144493 -1.530489
		CHANNELS 3 Xrotation Yrotation Zrotation
		JOINT mixamorig_LeftLeg
		{
			OFFSET 0.999181 -40.793915 0.038145
			CHANNELS 3 Xrotation Yrotation Zrotation
			JOINT mixamorig_LeftFoot
			{
				OFFSET -1.148513 -38.134243 4.265069
				CHANNELS 3 Xrotation Yrotation Zrotation
				JOINT mixamorig_LeftToeBase
				{
					OFFSET -0.465251 -6.961702 -10.249644
					CHANNELS 3 Xrotation Yrotation Zrotation
					End Site
					{
						OFFSET -0.959344 -0.686551 -9.361076
					}
				}
			}
		}
	}
	JOINT mixamorig_Spine
	{
		OFFSET -0.012521 9.659492 0.152576
		CHANNELS 3 Xrotation Yrotation Zrotation
		JOINT mixamorig_Spine1
		{
			OFFSET 0.013316 9.940590 -0.620916
			CHANNELS 3 Xrotation Yrotation Zrotation
			JOINT mixamorig_Spine2
			{
				OFFSET -0.024142 10.082199 -0.544315
				CHANNELS 3 Xrotation Yrotation Zrotation
				JOINT mixamorig_Neck
				{
					OFFSET -0.280692 18.101685 -1.792333
					CHANNELS 3 Xrotation Yrotation Zrotation
					JOINT mixamorig_Head
					{
						OFFSET -0.018573 9.067642 0.460133
						CHANNELS 3 Xrotation Yrotation Zrotation
						End Site
						{
							OFFSET 0.158257 16.422226 3.010605
						}
					}
				}
				JOINT mixamorig_RightShoulder
				{
					OFFSET -4.418977 12.360168 -1.870196
					CHANNELS 3 Xrotation Yrotation Zrotation
					JOINT mixamorig_RightArm
					{
						OFFSET -0.840364 -0.706100 9.418602
						CHANNELS 3 Xrotation Yrotation Zrotation
						JOINT mixamorig_RightForeArm
						{
							OFFSET -2.498498 0.041534 25.943676
							CHANNELS 3 Xrotation Yrotation Zrotation
							JOINT mixamorig_RightHand
							{
								OFFSET -2.575367 0.795197 26.809452
								CHANNELS 3 Xrotation Yrotation Zrotation
								JOINT mixamorig_RightHandIndex1
								{
									OFFSET 3.136251 -0.538528 8.955254
									CHANNELS 3 Xrotation Yrotation Zrotation
									JOINT mixamorig_RightHandIndex2
									{
										OFFSET 0.051750 0.018234 3.880755
										CHANNELS 3 Xrotation Yrotation Zrotation
										JOINT mixamorig_RightHandIndex3
										{
											OFFSET 0.159386 -0.111511 2.528431
											CHANNELS 3 Xrotation Yrotation Zrotation
											End Site
											{
												OFFSET -0.186133 -0.129547 2.317834
											}
										}
									}
								}
								JOINT mixamorig_RightHandThumb1
								{
									OFFSET 3.146857 -1.651413 2.139514
									CHANNELS 3 Xrotation Yrotation Zrotation
									JOINT mixamorig_RightHandThumb2
									{
										OFFSET 0.227379 -1.950211 3.563250
										CHANNELS 3 Xrotation Yrotation Zrotation
										JOINT mixamorig_RightHandThumb3
										{
											OFFSET -0.284211 -0.956070 2.684949
											CHANNELS 3 Xrotation Yrotation Zrotation
											End Site
											{
												OFFSET -0.050027 -1.039322 2.580839
											}
										}
									}
								}
								JOINT mixamorig_RightHandMiddle1
								{
									OFFSET 0.842868 0.059799 9.204017
									CHANNELS 3 Xrotation Yrotation Zrotation
									JOINT mixamorig_RightHandMiddle2
									{
										OFFSET 0.007599 0.118408 3.598334
										CHANNELS 3 Xrotation Yrotation Zrotation
										JOINT mixamorig_RightHandMiddle3
										{
											OFFSET -0.157197 -0.125458 2.928855
											CHANNELS 3 Xrotation Yrotation Zrotation
											End Site
											{
												OFFSET 0.172696 -0.014359 2.626183
											}
										}
									}
								}
								JOINT mixamorig_RightHandRing1
								{
									OFFSET -1.001290 0.004471 8.712891
									CHANNELS 3 Xrotation Yrotation Zrotation
									JOINT mixamorig_RightHandRing2
									{
										OFFSET -0.114342 0.268219 2.619466
										CHANNELS 3 Xrotation Yrotation Zrotation
										JOINT mixamorig_RightHandRing3
										{
											OFFSET 0.155752 0.013962 2.934787
											CHANNELS 3 Xrotation Yrotation Zrotation
											End Site
											{
												OFFSET -0.022682 -0.334305 2.395091
											}
										}
									}
								}
								JOINT mixamorig_RightHandPinky1
								{
									OFFSET -2.870745 -0.520309 8.239086
									CHANNELS 3 Xrotation Yrotation Zrotation
									JOINT mixamorig_RightHandPinky2
									{
										OFFSET -0.064124 0.097565 3.353874
										CHANNELS 3 Xrotation Yrotation Zrotation
										JOINT mixamorig_RightHandPinky3
										{
											OFFSET 0.054191 -0.056305 1.657426
											CHANNELS 3 Xrotation Yrotation Zrotation
											End Site
											{
												OFFSET 0.034473 0.045517 1.902615
											}
										}
									}
								}
							}
						}
					}
				}
				JOINT mixamorig_LeftShoulder
				{
					OFFSET 4.067368 12.365417 -1.818083
					CHANNELS 3 Xrotation Yrotation Zrotation
					JOINT mixamorig_LeftArm
					{
						OFFSET 0.880652 -0.717896 9.769979
						CHANNELS 3 Xrotation Yrotation Zrotation
						JOINT mixamorig_LeftForeArm
						{
							OFFSET 2.551281 -0.093887 25.986422
							CHANNELS 3 Xrotation Yrotation Zrotation
							JOINT mixamorig_LeftHand
							{
								OFFSET 2.550158 0.834869 25.953165
								CHANNELS 3 Xrotation Yrotation Zrotation
								JOINT mixamorig_LeftHandIndex1
								{
									OFFSET -3.091449 -0.508453 8.774550
									CHANNELS 3 Xrotation Yrotation Zrotation
									JOINT mixamorig_LeftHandIndex2
									{
										OFFSET 0.036697 0.078873 3.768008
										CHANNELS 3 Xrotation Yrotation Zrotation
										JOINT mixamorig_LeftHandIndex3
										{
											OFFSET -0.146443 -0.119202 2.548758
											CHANNELS 3 Xrotation Yrotation Zrotation
											End Site
											{
												OFFSET 0.171421 0.029297 2.617404
											}
										}
									}
								}
								JOINT mixamorig_LeftHandThumb1
								{
									OFFSET -3.148789 -1.646713 2.206965
									CHANNELS 3 Xrotation Yrotation Zrotation
									JOINT mixamorig_LeftHandThumb2
									{
										OFFSET 0.080562 -1.997971 3.556270
										CHANNELS 3 Xrotation Yrotation Zrotation
										JOINT mixamorig_LeftHandThumb3
										{
											OFFSET 0.511188 -1.178329 2.869402
											CHANNELS 3 Xrotation Yrotation Zrotation
											End Site
											{
												OFFSET -0.395684 -1.027771 2.132432
											}
										}
									}
								}
								JOINT mixamorig_LeftHandMiddle1
								{
									OFFSET -0.779669 -0.015396 9.112029
									CHANNELS 3 Xrotation Yrotation Zrotation
									JOINT mixamorig_LeftHandMiddle2
									{
										OFFSET 0.052194 -0.112549 3.389368
										CHANNELS 3 Xrotation Yrotation Zrotation
										JOINT mixamorig_LeftHandMiddle3
										{
											OFFSET 0.178288 -0.162537 3.259809
											CHANNELS 3 Xrotation Yrotation Zrotation
											End Site
											{
												OFFSET -0.168278 0.311600 2.538658
											}
										}
									}
								}
								JOINT mixamorig_LeftHandRing1
								{
									OFFSET 1.087882 0.018982 8.604859
									CHANNELS 3 Xrotation Yrotation Zrotation
									JOINT mixamorig_LeftHandRing2
									{
										OFFSET 0.149309 0.141083 2.758817
										CHANNELS 3 Xrotation Yrotation Zrotation
										JOINT mixamorig_LeftHandRing3
										{
											OFFSET -0.068528 -0.036240 2.975783
											CHANNELS 3 Xrotation Yrotation Zrotation
											End Site
											{
												OFFSET -0.030775 -0.086090 2.514544
											}
										}
									}
								}
								JOINT mixamorig_LeftHandPinky1
								{
									OFFSET 2.960986 -0.570038 8.064888
									CHANNELS 3 Xrotation Yrotation Zrotation
									JOINT mixamorig_LeftHandPinky2
									{
										OFFSET 0.094121 0.094238 2.893586
										CHANNELS 3 Xrotation Yrotation Zrotation
										JOINT mixamorig_LeftHandPinky3
										{
											OFFSET -0.031188 0.050095 1.974020
											CHANNELS 3 Xrotation Yrotation Zrotation
											End Site
											{
												OFFSET -0.027014 0.187729 1.913422
											}
										}
									}
								}
							}
						}
					}
				}
			}
		}
	}
}
MOTION
Frames: 5
Frame Time: 0.03333333333333333
-4.399761 -4.433371 0.460341 0.000000 0.890477 -0.000138 -176.856926 82.493098 175.221169 -16.524586 70.765919 18.733276 1.878619 11.233337 4.380417 -1.788834 4.195966 0.926414 -1.108813 7.265718 -1.966191 -174.441538 -22.944792 177.420503 4.027307 -38.949909 -1.973655 -0.895491 -0.697383 3.457079 1.405928 1.842893 -0.756478 4.938949 -2.168941 -1.544823 2.290152 -0.071047 -3.551066 1.093767 3.316133 6.389855 -0.137542 0.516736 4.533844 114.460938 -77.893098 121.222171 45.554411 7.096429 -30.886343 173.961220 54.248922 -121.296832 2.720502 -4.967122 17.385383 8.540002 5.711374 -24.947337 83.103333 -2.291329 0.478491 45.663947 8.273726 -11.476198 -15.758043 27.811285 6.165167 -2.705112 14.666685 -8.538568 -4.428888 18.291006 6.869393 4.694230 3.524033 -11.987425 80.844103 0.681652 8.085498 43.658013 -6.011353 1.083546 6.769206 1.977144 -5.416611 76.273532 -2.072870 14.021084 32.057905 -6.172729 -5.398351 7.098086 -4.211284 -4.523252 73.086858 6.640454 11.729192 47.550104 -10.602359 32.372975 -116.673512 83.392638 125.417494 57.306226 -7.974589 26.523569 -174.717349 -44.559390 127.192039 8.882030 15.678341 1.884709 2.966702 -11.469251 -3.734826 86.160138 6.902607 -17.622019 37.701451 0.380790 -2.430583 -14.266200 -39.670620 -8.750741 11.592298 -23.533300 34.109939 -19.045560 10.274016 -4.340612 0.713059 -10.904700 -0.967494 84.858919 -1.250981 -6.470538 46.768981 -1.263016 -4.074372 0.197353 -4.011805 -0.910064 87.183489 -2.118135 -9.870071 38.148792 0.947716 -9.552817 0.000000 -0.008134 0.000000 92.467678 4.000432 -11.134891 46.605572 1.299809 -7.427455 
-4.397595 -4.434134 0.461121 0.000000 0.890477 -0.000138 -176.856926 82.493098 175.221169 -16.895522 70.813241 19.086561 1.796973 11.234204 4.402690 -1.719093 4.266341 0.849519 -1.108460 7.265995 -1.965831 -174.403196 -22.858437 177.409815 4.019629 -38.957874 -1.996816 -0.860533 -0.708041 3.518104 1.405928 1.842893 -0.756478 4.970939 -2.146014 -1.324416 2.290152 -0.071047 -3.551066 1.100297 3.269453 6.389425 -0.108960 0.600480 4.487087 114.460938 -77.893098 121.222171 44.277830 7.853456 -30.712017 163.587613 57.518955 -105.054962 2.720396 -4.968022 16.339361 8.612457 5.613571 -24.826474 83.124761 -2.205234 -0.013955 45.553157 8.220849 -11.416237 -15.620461 27.641241 5.993511 -2.760145 14.446212 -8.400453 -4.431513 18.003201 6.751153 4.803883 3.485457 -11.913249 80.944844 0.632246 7.947845 43.653294 -6.013083 1.091448 6.874882 2.004994 -5.295578 76.289492 -2.237998 13.952435 32.055723 -6.010008 -5.418353 7.264365 -4.212085 -4.353126 73.031105 6.500597 11.741552 47.375761 -10.565541 32.296340 -116.673512 83.392638 125.417494 58.823481 -7.838174 26.868620 -172.116147 -41.829321 126.485909 8.883945 15.677254 4.086905 2.966702 -11.469251 -3.734826 86.160138 6.902607 -17.622019 37.701451 0.380790 -2.430583 -14.278063 -39.513523 -8.625618 11.592298 -23.533300 34.109939 -19.045560 10.274016 -4.340612 0.713059 -10.904700 -0.967494 84.858919 -1.250981 -6.470538 46.768981 -1.263016 -4.074372 0.197353 -4.011805 -0.910064 87.183489 -2.118135 -9.870071 38.148792 0.947716 -9.552817 0.000000 -0.008134 0.000000 92.467678 4.000432 -11.134891 46.605572 1.299809 -7.427455 
-4.395428 -4.434898 0.461901 0.000000 0.890477 -0.000138 -176.856926 82.493098 175.221169 -16.840692 70.798851 19.017502 1.806994 11.227867 4.400830 -1.717659 4.237615 0.860984 -1.108107 7.266273 -1.965472 -174.388675 -22.875299 177.399081 4.031704 -38.965678 -1.987647 -0.871869 -0.715276 3.534693 1.405928 1.842893 -0.756478 5.002842 -2.122964 -1.104019 2.290152 -0.071047 -3.551066 1.106827 3.222774 6.389002 -0.080308 0.684202 4.440286 114.460938 -77.893098 121.222171 43.370620 8.387345 -30.578054 154.275967 58.781090 -90.845851 2.720269 -4.968921 15.293367 8.685113 5.515919 -24.705513 83.146880 -2.119300 -0.506423 45.442480 8.167868 -11.356399 -15.483669 27.470847 5.822584 -2.814576 14.225610 -8.262691 -4.434757 17.715399 6.633090 4.913585 3.447024 -11.839006 81.045476 0.582599 7.810280 43.648576 -6.014814 1.099351 6.980505 2.033069 -5.174597 76.305259 -2.403144 13.883829 32.053628 -5.847297 -5.438350 7.430643 -4.212395 -4.183004 72.975412 6.360734 11.753778 47.201444 -10.528479 32.219796 -116.673512 83.392638 125.417494 59.830786 -7.742726 27.095910 -169.576268 -39.125867 125.650188 8.885699 15.675985 6.288846 2.966702 -11.469251 -3.734826 86.160138 6.902607 -17.622019 37.701451 0.380790 -2.430583 -14.290342 -39.356419 -8.500729 11.592298 -23.533300 34.109939 -19.045560 10.274016 -4.340612 0.713059 -10.904700 -0.967494 84.858919 -1.250981 -6.470538 46.768981 -1.263016 -4.074372 0.197353 -4.011805 -0.910064 87.183489 -2.118135 -9.870071 38.148792 0.947716 -9.552817 0.000000 -0.008134 0.000000 92.467678 4.000432 -11.134891 46.605572 1.299809 -7.427455 
-4.393262 -4.435662 0.462682 0.000000 0.890477 -0.000138 -176.856926 82.493098 175.221169 -16.818231 70.796960 18.984790 1.820184 11.228065 4.407496 -1.724473 4.199744 0.855061 -1.107754 7.266551 -1.965113 -174.364137 -22.906888 177.416294 4.035100 -38.972733 -1.977225 -0.890368 -0.696199 3.548706 1.405928 1.842893 -0.756478 5.017353 -2.107319 -0.978185 2.290152 -0.071047 -3.551066 1.113356 3.176095 6.388583 -0.051587 0.767900 4.393442 114.460938 -77.893098 121.222171 44.405202 7.778218 -30.730158 160.370829 58.255961 -96.739689 2.720122 -4.969818 14.247401 8.757970 5.418421 -24.584454 83.169689 -2.033533 -0.998912 45.331914 8.114785 -11.296683 -15.347665 27.300104 5.652380 -2.868407 14.004881 -8.125278 -4.438618 17.427603 6.515197 5.023336 3.408734 -11.764696 81.145996 0.532712 7.672801 43.643857 -6.016546 1.107253 7.086076 2.061368 -5.053668 76.320834 -2.568306 13.815265 32.051619 -5.684596 -5.458342 7.596921 -4.212214 -4.012887 72.919776 6.220864 11.765870 47.027153 -10.491174 32.143343 -116.673512 83.392638 125.417494 58.187834 -7.897498 26.724765 -171.260195 -40.884556 126.108714 8.887288 15.674535 8.490458 2.966702 -11.469251 -3.734826 86.160138 6.902607 -17.622019 37.701451 0.380790 -2.430583 -14.303034 -39.199309 -8.376071 11.592298 -23.533300 34.109939 -19.045560 10.274016 -4.340612 0.713059 -10.904700 -0.967494 84.858919 -1.250981 -6.470538 46.768981 -1.263016 -4.074372 0.197353 -4.011805 -0.910064 87.183489 -2.118135 -9.870071 38.148792 0.947716 -9.552817 0.000000 -0.008134 0.000000 92.467678 4.000432 -11.134891 46.605572 1.299809 -7.427455 
-4.391095 -4.436426 0.463462 0.000000 0.890477 -0.000138 -176.856926 82.493098 175.221169 -16.956182 70.820923 19.086444 1.776325 11.214738 4.395933 -1.706369 4.246041 0.816991 -1.107401 7.266828 -1.964753 -174.328592 -22.880282 177.431787 4.039765 -38.968766 -1.980112 -0.881785 -0.680982 3.554285 1.405928 1.842893 -0.756478 4.981345 -2.113532 -1.128191 2.290152 -0.071047 -3.551066 1.119885 3.129417 6.388171 -0.022797 0.851576 4.346554 114.460938 -77.893098 121.222171 45.436707 7.166497 -30.870968 166.223558 57.414474 -102.391301 2.719955 -4.970714 13.201465 8.831029 5.321075 -24.463296 83.193186 -1.947941 -1.491426 45.221461 8.061599 -11.237090 -15.212442 27.129016 5.482894 -2.921641 13.784026 -7.988208 -4.443093 17.139813 6.397468 5.133136 3.370587 -11.690318 81.246406 0.482585 7.535411 43.639140 -6.018278 1.115155 7.191595 2.089891 -4.932792 76.336215 -2.733484 13.746743 32.049698 -5.521903 -5.478330 7.763197 -4.211543 -3.842777 72.864198 6.080988 11.777829 46.852889 -10.453626 32.066983 -116.673512 83.392638 125.417494 56.542488 -8.041380 26.348696 -173.649078 -43.354206 126.675631 8.888086 15.673668 9.692761 2.966702 -11.469251 -3.734826 86.160138 6.902607 -17.622019 37.701451 0.380790 -2.430583 -14.316136 -39.042194 -8.251640 11.592298 -23.533300 34.109939 -19.045560 10.274016 -4.340612 0.713059 -10.904700 -0.967494 84.858919 -1.250981 -6.470538 46.768981 -1.263016 -4.074372 0.197353 -4.011805 -0.910064 87.183489 -2.118135 -9.870071 38.148792 0.947716 -9.552817 0.000000 -0.008134 0.000000 92.467678 4.000432 -11.134891 46.605572 1.299809 -7.427455 
